<?xml version="1.0" encoding="UTF-8" standalone="no"?>
<!-- Created with Inkscape (http://www.inkscape.org/) -->

<svg
   width="1280"
   height="720"
   viewBox="0 0 338.66666 190.5"
   version="1.1"
   id="svg5"
   xml:space="preserve"
   inkscape:version="1.2 (dc2aedaf03, 2022-05-15)"
   sodipodi:docname="logosedt.svg"
   inkscape:export-filename="../imagens/java.png"
   inkscape:export-xdpi="96"
   inkscape:export-ydpi="96"
   xmlns:inkscape="http://www.inkscape.org/namespaces/inkscape"
   xmlns:sodipodi="http://sodipodi.sourceforge.net/DTD/sodipodi-0.dtd"
   xmlns="http://www.w3.org/2000/svg"
   xmlns:svg="http://www.w3.org/2000/svg"><sodipodi:namedview
     id="namedview7"
     pagecolor="#ffffff"
     bordercolor="#666666"
     borderopacity="1.0"
     inkscape:showpageshadow="2"
     inkscape:pageopacity="0.0"
     inkscape:pagecheckerboard="0"
     inkscape:deskcolor="#d1d1d1"
     inkscape:document-units="px"
     showgrid="false"
     inkscape:zoom="0.2973261"
     inkscape:cx="627.25741"
     inkscape:cy="420.41381"
     inkscape:window-width="1600"
     inkscape:window-height="835"
     inkscape:window-x="0"
     inkscape:window-y="0"
     inkscape:window-maximized="1"
     inkscape:current-layer="layer1" /><defs
     id="defs2"><clipPath
       clipPathUnits="userSpaceOnUse"
       id="clipPath3444">
      <path
   d="M 11.52,162 C 11.52,81.677 135.307,16.561 288,16.561 l 0,0 c 152.693,0 276.481,65.116 276.481,145.439 l 0,0 c 0,80.322 -123.788,145.439 -276.481,145.439 l 0,0 C 135.307,307.439 11.52,242.322 11.52,162"
   id="path3446" />
    </clipPath><radialGradient
       cx="0"
       cy="0"
       fx="0"
       fy="0"
       gradientTransform="matrix(363.05789,0,0,-363.05789,177.52002,256.30713)"
       gradientUnits="userSpaceOnUse"
       id="radialGradient3452"
       r="1"
       spreadMethod="pad">
      <stop
   id="stop3454"
   offset="0"
   style="stop-opacity:1;stop-color:#aeb2d5" />
      <stop
   id="stop3456"
   offset="0.3"
   style="stop-opacity:1;stop-color:#aeb2d5" />
      <stop
   id="stop3458"
   offset="0.75"
   style="stop-opacity:1;stop-color:#484c89" />
      <stop
   id="stop3460"
   offset="1"
   style="stop-opacity:1;stop-color:#484c89" />
    </radialGradient><clipPath
       clipPathUnits="userSpaceOnUse"
       id="clipPath3468">
      <path
   d="M 0,324 576,324 576,0 0,0 0,324 Z"
   id="path3470" />
    </clipPath><clipPath
       clipPathUnits="userSpaceOnUse"
       id="clipPath3480">
      <path
   d="M 0,324 576,324 576,0 0,0 0,324 Z"
   id="path3482" />
    </clipPath><filter
       inkscape:label="Inset"
       inkscape:menu="Shadows and Glows"
       inkscape:menu-tooltip="Shadowy outer bevel"
       style="color-interpolation-filters:sRGB;"
       id="filter311"
       x="-0.016790733"
       y="-0.094644908"
       width="1.0335815"
       height="1.1892898"><feMorphology
         result="result1"
         in="SourceAlpha"
         operator="dilate"
         radius="2"
         id="feMorphology299" /><feGaussianBlur
         stdDeviation="1.5"
         in="result1"
         result="result0"
         id="feGaussianBlur301" /><feDiffuseLighting
         surfaceScale="0"
         id="feDiffuseLighting305"
         lighting-color="rgb(0,0,0)"><feDistantLight
           elevation="45"
           azimuth="225"
           id="feDistantLight303" /></feDiffuseLighting><feComposite
         in2="result0"
         operator="in"
         result="result91"
         id="feComposite307" /><feComposite
         in="SourceGraphic"
         in2="result91"
         id="feComposite309" /></filter><clipPath
       id="a"><path
         d="M239.03 226.605l-42.13 24.317c-1.578.91-2.546 2.59-2.546 4.406v48.668c0 1.817.968 3.496 2.546 4.406l42.133 24.336c1.575.907 3.517.907 5.09 0l42.126-24.336c1.57-.91 2.54-2.59 2.54-4.406v-48.668c0-1.816-.97-3.496-2.55-4.406l-42.12-24.317c-.79-.453-1.67-.68-2.55-.68-.88 0-1.76.227-2.55.68"
         id="path884" /></clipPath><linearGradient
       id="b"
       x1="-.348"
       x2="1.251"
       gradientTransform="matrix(-38.064915,77.652126,-77.652126,-38.064915,258.72325,244.62943)"
       gradientUnits="userSpaceOnUse"><stop
         offset=".3"
         stop-color="#3E863D"
         id="stop887" /><stop
         offset=".5"
         stop-color="#55934F"
         id="stop889" /><stop
         offset=".8"
         stop-color="#5AAD45"
         id="stop891" /></linearGradient><clipPath
       id="c"><path
         d="M195.398 307.086c.403.523.907.976 1.5 1.316l36.14 20.875 6.02 3.46c.9.52 1.926.74 2.934.665.336-.027.672-.09 1-.183l44.434-81.36c-.34-.37-.738-.68-1.184-.94l-27.586-15.93-14.582-8.39c-.414-.24-.863-.41-1.32-.53zm0 0"
         id="path894" /></clipPath><linearGradient
       id="d"
       x1="-.456"
       x2=".582"
       gradientTransform="matrix(106.8057,-78.916731,78.916731,106.8057,235.18824,285.39477)"
       gradientUnits="userSpaceOnUse"><stop
         offset=".57"
         stop-color="#3E863D"
         id="stop897" /><stop
         offset=".72"
         stop-color="#619857"
         id="stop899" /><stop
         offset="1"
         stop-color="#76AC64"
         id="stop901" /></linearGradient><clipPath
       id="e"><path
         d="M241.066 225.953c-.707.07-1.398.29-2.035.652l-42.01 24.247 45.3 82.51c.63-.09 1.25-.3 1.81-.624l42.13-24.336c1.3-.754 2.19-2.03 2.46-3.476l-46.18-78.89c-.34-.067-.68-.102-1.03-.102-.14 0-.28.007-.42.02"
         id="path904" /></clipPath><linearGradient
       id="f"
       x1=".043"
       x2=".984"
       gradientTransform="matrix(97.417,0,0,97.417,192.862,279.652)"
       gradientUnits="userSpaceOnUse"><stop
         offset=".16"
         stop-color="#6BBF47"
         id="stop907" /><stop
         offset=".38"
         stop-color="#79B461"
         id="stop909" /><stop
         offset=".47"
         stop-color="#75AC64"
         id="stop911" /><stop
         offset=".7"
         stop-color="#659E5A"
         id="stop913" /><stop
         offset=".9"
         stop-color="#3E863D"
         id="stop915" /></linearGradient></defs><g
     inkscape:label="Camada 1"
     inkscape:groupmode="layer"
     id="layer1"><g
       id="g251"
       transform="matrix(0.33847337,0,0,0.33847337,117.90535,2.2199176)"><path
         style="fill:#5382a1"
         d="m 285.104,430.945 h -2.038 v -1.14 h 5.486 v 1.14 h -2.024 v 5.688 h -1.424 z m 10.942,0.297 h -0.032 l -2.019,5.392 h -0.924 l -2.006,-5.392 h -0.025 v 5.392 h -1.342 v -6.828 h 1.975 l 1.86,4.835 1.854,-4.835 h 1.968 v 6.828 h -1.31 v -5.392 z"
         id="path207" /><path
         style="fill:#5382a1"
         d="m 102.681,291.324 c 0,0 -14.178,8.245 10.09,11.035 29.4,3.354 44.426,2.873 76.825,-3.259 0,0 8.518,5.341 20.414,9.967 -72.63,31.128 -164.376,-1.803 -107.329,-17.743"
         id="path209" /><path
         style="fill:#5382a1"
         d="m 93.806,250.704 c 0,0 -15.902,11.771 8.384,14.283 31.406,3.24 56.208,3.505 99.125,-4.759 0,0 5.936,6.018 15.27,9.309 -87.814,25.678 -185.623,2.025 -122.779,-18.833"
         id="path211" /><path
         style="fill:#f8981d"
         d="m 168.625,181.799 c 17.896,20.604 -4.702,39.145 -4.702,39.145 0,0 45.441,-23.458 24.572,-52.833 -19.491,-27.394 -34.438,-41.005 46.479,-87.934 0,0 -127.013,31.722 -66.349,101.622"
         id="path213" /><path
         style="fill:#5382a1"
         d="m 264.684,321.369 c 0,0 10.492,8.645 -11.555,15.333 -41.923,12.7 -174.488,16.535 -211.314,0.506 -13.238,-5.759 11.587,-13.751 19.396,-15.428 8.144,-1.766 12.798,-1.437 12.798,-1.437 -14.722,-10.371 -95.157,20.364 -40.857,29.166 148.084,24.015 269.943,-10.814 231.532,-28.14"
         id="path215" /><path
         style="fill:#5382a1"
         d="m 109.499,208.617 c 0,0 -67.431,16.016 -23.879,21.832 18.389,2.462 55.047,1.905 89.193,-0.956 27.906,-2.354 55.927,-7.359 55.927,-7.359 0,0 -9.84,4.214 -16.959,9.075 -68.475,18.009 -200.756,9.631 -162.674,-8.79 32.206,-15.568 58.392,-13.802 58.392,-13.802"
         id="path217" /><path
         style="fill:#5382a1"
         d="m 230.462,276.231 c 69.608,-36.171 37.424,-70.931 14.96,-66.248 -5.506,1.146 -7.961,2.139 -7.961,2.139 0,0 2.044,-3.202 5.948,-4.588 44.441,-15.624 78.619,46.081 -14.346,70.52 0,0.001 1.077,-0.962 1.399,-1.823"
         id="path219" /><path
         style="fill:#f8981d"
         d="m 188.495,4.399 c 0,0 38.55,38.563 -36.563,97.862 -60.233,47.568 -13.735,74.69 -0.025,105.678 C 116.748,176.217 90.946,148.292 108.256,122.302 133.663,84.151 204.049,65.654 188.495,4.399"
         id="path221" /><path
         style="fill:#5382a1"
         d="m 116.339,374.246 c 66.815,4.277 169.417,-2.373 171.847,-33.988 0,0 -4.671,11.985 -55.219,21.503 -57.028,10.732 -127.364,9.479 -169.081,2.601 10e-4,-0.001 8.54,7.068 52.453,9.884"
         id="path223" /><path
         style="fill:#5382a1"
         d="m 105.389,495.048 c -6.303,5.467 -12.96,8.536 -18.934,8.536 -8.527,0 -13.134,-5.113 -13.134,-13.314 0,-8.871 4.936,-15.357 24.739,-15.357 h 7.328 v 20.135 m 17.393,19.623 v -60.742 c 0,-15.517 -8.85,-25.756 -30.188,-25.756 -12.457,0 -23.369,3.076 -32.238,6.999 l 2.56,10.752 c 6.983,-2.563 16.022,-4.949 24.894,-4.949 12.292,0 17.58,4.949 17.58,15.181 v 7.677 h -6.135 c -29.865,0 -43.337,11.593 -43.337,28.994 0,15.017 8.878,23.553 25.594,23.553 10.745,0 18.766,-4.436 26.264,-10.928 l 1.361,9.22 h 13.645 z"
         id="path225" /><path
         style="fill:#5382a1"
         d="m 180.825,514.671 h -21.692 l -26.106,-84.96 h 18.943 l 16.199,52.2 3.601,15.699 c 8.195,-22.698 13.991,-45.726 16.89,-67.899 h 18.427 c -4.937,27.977 -13.821,58.685 -26.262,84.96"
         id="path227" /><path
         style="fill:#5382a1"
         d="m 264.038,495.048 c -6.315,5.467 -12.984,8.536 -18.958,8.536 -8.512,0 -13.131,-5.113 -13.131,-13.314 0,-8.871 4.948,-15.357 24.749,-15.357 h 7.34 v 20.135 m 17.39,19.623 v -60.742 c 0,-15.517 -8.872,-25.756 -30.185,-25.756 -12.466,0 -23.382,3.076 -32.247,6.999 l 2.556,10.752 c 6.986,-2.563 16.042,-4.949 24.907,-4.949 12.283,0 17.579,4.949 17.579,15.181 v 7.677 h -6.145 c -29.874,0 -43.34,11.593 -43.34,28.994 0,15.017 8.871,23.553 25.584,23.553 10.751,0 18.769,-4.436 26.28,-10.928 l 1.366,9.22 h 13.645 z"
         id="path229" /><path
         style="fill:#5382a1"
         d="m 36.847,529.099 c -4.958,7.239 -12.966,12.966 -21.733,16.206 L 6.527,535.2 c 6.673,-3.424 12.396,-8.954 15.055,-14.105 2.3,-4.581 3.252,-10.485 3.252,-24.604 v -96.995 h 18.478 v 95.666 c -10e-4,18.876 -1.51,26.501 -6.465,33.937"
         id="path231" /></g></g></svg>
