<?xml version="1.0" encoding="UTF-8" standalone="no"?>
<!-- Created with Inkscape (http://www.inkscape.org/) -->

<svg
   width="1280"
   height="720"
   viewBox="0 0 338.66666 190.5"
   version="1.1"
   id="svg5"
   xml:space="preserve"
   inkscape:version="1.2 (dc2aedaf03, 2022-05-15)"
   sodipodi:docname="logosedt.svg"
   inkscape:export-filename="../imagens/dbeaver.png"
   inkscape:export-xdpi="96"
   inkscape:export-ydpi="96"
   xmlns:inkscape="http://www.inkscape.org/namespaces/inkscape"
   xmlns:sodipodi="http://sodipodi.sourceforge.net/DTD/sodipodi-0.dtd"
   xmlns="http://www.w3.org/2000/svg"
   xmlns:svg="http://www.w3.org/2000/svg"><sodipodi:namedview
     id="namedview7"
     pagecolor="#ffffff"
     bordercolor="#666666"
     borderopacity="1.0"
     inkscape:showpageshadow="2"
     inkscape:pageopacity="0.0"
     inkscape:pagecheckerboard="0"
     inkscape:deskcolor="#d1d1d1"
     inkscape:document-units="px"
     showgrid="false"
     inkscape:zoom="0.2973261"
     inkscape:cx="1168.7504"
     inkscape:cy="595.30597"
     inkscape:window-width="1600"
     inkscape:window-height="835"
     inkscape:window-x="0"
     inkscape:window-y="0"
     inkscape:window-maximized="1"
     inkscape:current-layer="layer1" /><defs
     id="defs2"><clipPath
       clipPathUnits="userSpaceOnUse"
       id="clipPath3444">
      <path
   d="M 11.52,162 C 11.52,81.677 135.307,16.561 288,16.561 l 0,0 c 152.693,0 276.481,65.116 276.481,145.439 l 0,0 c 0,80.322 -123.788,145.439 -276.481,145.439 l 0,0 C 135.307,307.439 11.52,242.322 11.52,162"
   id="path3446" />
    </clipPath><radialGradient
       cx="0"
       cy="0"
       fx="0"
       fy="0"
       gradientTransform="matrix(363.05789,0,0,-363.05789,177.52002,256.30713)"
       gradientUnits="userSpaceOnUse"
       id="radialGradient3452"
       r="1"
       spreadMethod="pad">
      <stop
   id="stop3454"
   offset="0"
   style="stop-opacity:1;stop-color:#aeb2d5" />
      <stop
   id="stop3456"
   offset="0.3"
   style="stop-opacity:1;stop-color:#aeb2d5" />
      <stop
   id="stop3458"
   offset="0.75"
   style="stop-opacity:1;stop-color:#484c89" />
      <stop
   id="stop3460"
   offset="1"
   style="stop-opacity:1;stop-color:#484c89" />
    </radialGradient><clipPath
       clipPathUnits="userSpaceOnUse"
       id="clipPath3468">
      <path
   d="M 0,324 576,324 576,0 0,0 0,324 Z"
   id="path3470" />
    </clipPath><clipPath
       clipPathUnits="userSpaceOnUse"
       id="clipPath3480">
      <path
   d="M 0,324 576,324 576,0 0,0 0,324 Z"
   id="path3482" />
    </clipPath><filter
       inkscape:label="Inset"
       inkscape:menu="Shadows and Glows"
       inkscape:menu-tooltip="Shadowy outer bevel"
       style="color-interpolation-filters:sRGB;"
       id="filter311"
       x="-0.016790733"
       y="-0.094644908"
       width="1.0335815"
       height="1.1892898"><feMorphology
         result="result1"
         in="SourceAlpha"
         operator="dilate"
         radius="2"
         id="feMorphology299" /><feGaussianBlur
         stdDeviation="1.5"
         in="result1"
         result="result0"
         id="feGaussianBlur301" /><feDiffuseLighting
         surfaceScale="0"
         id="feDiffuseLighting305"
         lighting-color="rgb(0,0,0)"><feDistantLight
           elevation="45"
           azimuth="225"
           id="feDistantLight303" /></feDiffuseLighting><feComposite
         in2="result0"
         operator="in"
         result="result91"
         id="feComposite307" /><feComposite
         in="SourceGraphic"
         in2="result91"
         id="feComposite309" /></filter><clipPath
       id="a"><path
         d="M239.03 226.605l-42.13 24.317c-1.578.91-2.546 2.59-2.546 4.406v48.668c0 1.817.968 3.496 2.546 4.406l42.133 24.336c1.575.907 3.517.907 5.09 0l42.126-24.336c1.57-.91 2.54-2.59 2.54-4.406v-48.668c0-1.816-.97-3.496-2.55-4.406l-42.12-24.317c-.79-.453-1.67-.68-2.55-.68-.88 0-1.76.227-2.55.68"
         id="path884" /></clipPath><linearGradient
       id="b"
       x1="-.348"
       x2="1.251"
       gradientTransform="matrix(-38.064915,77.652126,-77.652126,-38.064915,258.72325,244.62943)"
       gradientUnits="userSpaceOnUse"><stop
         offset=".3"
         stop-color="#3E863D"
         id="stop887" /><stop
         offset=".5"
         stop-color="#55934F"
         id="stop889" /><stop
         offset=".8"
         stop-color="#5AAD45"
         id="stop891" /></linearGradient><clipPath
       id="c"><path
         d="M195.398 307.086c.403.523.907.976 1.5 1.316l36.14 20.875 6.02 3.46c.9.52 1.926.74 2.934.665.336-.027.672-.09 1-.183l44.434-81.36c-.34-.37-.738-.68-1.184-.94l-27.586-15.93-14.582-8.39c-.414-.24-.863-.41-1.32-.53zm0 0"
         id="path894" /></clipPath><linearGradient
       id="d"
       x1="-.456"
       x2=".582"
       gradientTransform="matrix(106.8057,-78.916731,78.916731,106.8057,235.18824,285.39477)"
       gradientUnits="userSpaceOnUse"><stop
         offset=".57"
         stop-color="#3E863D"
         id="stop897" /><stop
         offset=".72"
         stop-color="#619857"
         id="stop899" /><stop
         offset="1"
         stop-color="#76AC64"
         id="stop901" /></linearGradient><clipPath
       id="e"><path
         d="M241.066 225.953c-.707.07-1.398.29-2.035.652l-42.01 24.247 45.3 82.51c.63-.09 1.25-.3 1.81-.624l42.13-24.336c1.3-.754 2.19-2.03 2.46-3.476l-46.18-78.89c-.34-.067-.68-.102-1.03-.102-.14 0-.28.007-.42.02"
         id="path904" /></clipPath><linearGradient
       id="f"
       x1=".043"
       x2=".984"
       gradientTransform="matrix(97.417,0,0,97.417,192.862,279.652)"
       gradientUnits="userSpaceOnUse"><stop
         offset=".16"
         stop-color="#6BBF47"
         id="stop907" /><stop
         offset=".38"
         stop-color="#79B461"
         id="stop909" /><stop
         offset=".47"
         stop-color="#75AC64"
         id="stop911" /><stop
         offset=".7"
         stop-color="#659E5A"
         id="stop913" /><stop
         offset=".9"
         stop-color="#3E863D"
         id="stop915" /></linearGradient><linearGradient
       id="XMLID_17_-9"
       gradientUnits="userSpaceOnUse"
       x1="174.0737"
       y1="215.5488"
       x2="132.27631"
       y2="141.7533"><stop
         offset="0"
         style="stop-color:#FB7655"
         id="stop3272-4" /><stop
         offset="0"
         style="stop-color:#FB7655"
         id="stop3274-5" /><stop
         offset="0.41"
         style="stop-color:#E42B1E"
         id="stop3276-1" /><stop
         offset="0.99"
         style="stop-color:#990000"
         id="stop3278-0" /><stop
         offset="1"
         style="stop-color:#990000"
         id="stop3280-3" /></linearGradient><linearGradient
       id="XMLID_18_-7"
       gradientUnits="userSpaceOnUse"
       x1="194.895"
       y1="153.5576"
       x2="141.0276"
       y2="117.4093"><stop
         offset="0"
         style="stop-color:#871101"
         id="stop3285-8" /><stop
         offset="0"
         style="stop-color:#871101"
         id="stop3287-8" /><stop
         offset="0.99"
         style="stop-color:#911209"
         id="stop3289-6" /><stop
         offset="1"
         style="stop-color:#911209"
         id="stop3291-0" /></linearGradient><linearGradient
       id="XMLID_19_-4"
       gradientUnits="userSpaceOnUse"
       x1="151.79539"
       y1="217.7852"
       x2="97.929703"
       y2="181.638"><stop
         offset="0"
         style="stop-color:#871101"
         id="stop3296-6" /><stop
         offset="0"
         style="stop-color:#871101"
         id="stop3298-7" /><stop
         offset="0.99"
         style="stop-color:#911209"
         id="stop3300-6" /><stop
         offset="1"
         style="stop-color:#911209"
         id="stop3302-0" /></linearGradient><linearGradient
       id="XMLID_20_-9"
       gradientUnits="userSpaceOnUse"
       x1="38.696301"
       y1="127.3906"
       x2="47.046902"
       y2="181.66141"><stop
         offset="0"
         style="stop-color:#FFFFFF"
         id="stop3307-7" /><stop
         offset="0"
         style="stop-color:#FFFFFF"
         id="stop3309-5" /><stop
         offset="0.23"
         style="stop-color:#E57252"
         id="stop3311-9" /><stop
         offset="0.46"
         style="stop-color:#DE3B20"
         id="stop3313-7" /><stop
         offset="0.99"
         style="stop-color:#A60003"
         id="stop3315-8" /><stop
         offset="1"
         style="stop-color:#A60003"
         id="stop3317-5" /></linearGradient><linearGradient
       id="XMLID_21_-3"
       gradientUnits="userSpaceOnUse"
       x1="96.132797"
       y1="76.715302"
       x2="99.209602"
       y2="132.1021"><stop
         offset="0"
         style="stop-color:#FFFFFF"
         id="stop3322-3" /><stop
         offset="0"
         style="stop-color:#FFFFFF"
         id="stop3324-8" /><stop
         offset="0.23"
         style="stop-color:#E4714E"
         id="stop3326-3" /><stop
         offset="0.56"
         style="stop-color:#BE1A0D"
         id="stop3328-7" /><stop
         offset="0.99"
         style="stop-color:#A80D00"
         id="stop3330-9" /><stop
         offset="1"
         style="stop-color:#A80D00"
         id="stop3332-3" /></linearGradient><linearGradient
       id="XMLID_22_-7"
       gradientUnits="userSpaceOnUse"
       x1="147.103"
       y1="25.521"
       x2="156.3141"
       y2="65.216202"><stop
         offset="0"
         style="stop-color:#FFFFFF"
         id="stop3337-8" /><stop
         offset="0"
         style="stop-color:#FFFFFF"
         id="stop3339-7" /><stop
         offset="0.18"
         style="stop-color:#E46342"
         id="stop3341-4" /><stop
         offset="0.4"
         style="stop-color:#C82410"
         id="stop3343-1" /><stop
         offset="0.99"
         style="stop-color:#A80D00"
         id="stop3345-9" /><stop
         offset="1"
         style="stop-color:#A80D00"
         id="stop3347-0" /></linearGradient><linearGradient
       id="XMLID_23_-9"
       gradientUnits="userSpaceOnUse"
       x1="118.9761"
       y1="11.5415"
       x2="158.66859"
       y2="-8.3048"><stop
         offset="0"
         style="stop-color:#FFFFFF"
         id="stop3352-8" /><stop
         offset="0"
         style="stop-color:#FFFFFF"
         id="stop3354-8" /><stop
         offset="0.54"
         style="stop-color:#C81F11"
         id="stop3356-5" /><stop
         offset="0.99"
         style="stop-color:#BF0905"
         id="stop3358-8" /><stop
         offset="1"
         style="stop-color:#BF0905"
         id="stop3360-4" /></linearGradient><linearGradient
       id="XMLID_24_-3"
       gradientUnits="userSpaceOnUse"
       x1="3.9033"
       y1="113.5547"
       x2="7.1701999"
       y2="146.2628"><stop
         offset="0"
         style="stop-color:#FFFFFF"
         id="stop3365-7" /><stop
         offset="0"
         style="stop-color:#FFFFFF"
         id="stop3367-1" /><stop
         offset="0.31"
         style="stop-color:#DE4024"
         id="stop3369-3" /><stop
         offset="0.99"
         style="stop-color:#BF190B"
         id="stop3371-8" /><stop
         offset="1"
         style="stop-color:#BF190B"
         id="stop3373-0" /></linearGradient><linearGradient
       id="XMLID_25_-9"
       gradientUnits="userSpaceOnUse"
       x1="-18.5557"
       y1="155.10451"
       x2="135.0152"
       y2="-2.8092999"><stop
         offset="0"
         style="stop-color:#BD0012"
         id="stop3380-7" /><stop
         offset="0"
         style="stop-color:#BD0012"
         id="stop3382-9" /><stop
         offset="0.07"
         style="stop-color:#FFFFFF"
         id="stop3384-9" /><stop
         offset="0.17"
         style="stop-color:#FFFFFF"
         id="stop3386-3" /><stop
         offset="0.27"
         style="stop-color:#C82F1C"
         id="stop3388-2" /><stop
         offset="0.33"
         style="stop-color:#820C01"
         id="stop3390-4" /><stop
         offset="0.46"
         style="stop-color:#A31601"
         id="stop3392-3" /><stop
         offset="0.72"
         style="stop-color:#B31301"
         id="stop3394-7" /><stop
         offset="0.99"
         style="stop-color:#E82609"
         id="stop3396-1" /><stop
         offset="1"
         style="stop-color:#E82609"
         id="stop3398-2" /></linearGradient><linearGradient
       id="XMLID_26_-2"
       gradientUnits="userSpaceOnUse"
       x1="99.074699"
       y1="171.0332"
       x2="52.817699"
       y2="159.61659"><stop
         offset="0"
         style="stop-color:#8C0C01"
         id="stop3403-0" /><stop
         offset="0"
         style="stop-color:#8C0C01"
         id="stop3405-2" /><stop
         offset="0.54"
         style="stop-color:#990C00"
         id="stop3407-1" /><stop
         offset="0.99"
         style="stop-color:#A80D0E"
         id="stop3409-7" /><stop
         offset="1"
         style="stop-color:#A80D0E"
         id="stop3411-5" /></linearGradient><linearGradient
       id="XMLID_27_-1"
       gradientUnits="userSpaceOnUse"
       x1="178.52589"
       y1="115.5146"
       x2="137.43269"
       y2="78.683998"><stop
         offset="0"
         style="stop-color:#7E110B"
         id="stop3416-7" /><stop
         offset="0"
         style="stop-color:#7E110B"
         id="stop3418-4" /><stop
         offset="0.99"
         style="stop-color:#9E0C00"
         id="stop3420-1" /><stop
         offset="1"
         style="stop-color:#9E0C00"
         id="stop3422-7" /></linearGradient><linearGradient
       id="XMLID_28_-1"
       gradientUnits="userSpaceOnUse"
       x1="193.6235"
       y1="47.937"
       x2="173.15421"
       y2="26.053801"><stop
         offset="0"
         style="stop-color:#79130D"
         id="stop3427-1" /><stop
         offset="0"
         style="stop-color:#79130D"
         id="stop3429-1" /><stop
         offset="0.99"
         style="stop-color:#9E120B"
         id="stop3431-7" /><stop
         offset="1"
         style="stop-color:#9E120B"
         id="stop3433-0" /></linearGradient><radialGradient
       id="XMLID_29_-4"
       cx="143.8315"
       cy="79.388199"
       r="50.357601"
       gradientUnits="userSpaceOnUse"><stop
         offset="0"
         style="stop-color:#A80D00"
         id="stop3440-0" /><stop
         offset="0"
         style="stop-color:#A80D00"
         id="stop3442-8" /><stop
         offset="0.99"
         style="stop-color:#7E0E08"
         id="stop3444-5" /><stop
         offset="1"
         style="stop-color:#7E0E08"
         id="stop3446-1" /></radialGradient><radialGradient
       id="XMLID_30_-6"
       cx="74.0923"
       cy="145.75101"
       r="66.943703"
       gradientUnits="userSpaceOnUse"><stop
         offset="0"
         style="stop-color:#A30C00"
         id="stop3451-6" /><stop
         offset="0"
         style="stop-color:#A30C00"
         id="stop3453-2" /><stop
         offset="0.99"
         style="stop-color:#800E08"
         id="stop3455-1" /><stop
         offset="1"
         style="stop-color:#800E08"
         id="stop3457-9" /></radialGradient><linearGradient
       id="XMLID_31_-6"
       gradientUnits="userSpaceOnUse"
       x1="26.669901"
       y1="197.33591"
       x2="9.9886999"
       y2="140.742"><stop
         offset="0"
         style="stop-color:#8B2114"
         id="stop3462-4" /><stop
         offset="0"
         style="stop-color:#8B2114"
         id="stop3464-8" /><stop
         offset="0.43"
         style="stop-color:#9E100A"
         id="stop3466-0" /><stop
         offset="0.99"
         style="stop-color:#B3100C"
         id="stop3468-8" /><stop
         offset="1"
         style="stop-color:#B3100C"
         id="stop3470-1" /></linearGradient><linearGradient
       id="XMLID_32_-0"
       gradientUnits="userSpaceOnUse"
       x1="154.6411"
       y1="9.7979002"
       x2="192.039"
       y2="26.305901"><stop
         offset="0"
         style="stop-color:#B31000"
         id="stop3475-2" /><stop
         offset="0"
         style="stop-color:#B31000"
         id="stop3477-2" /><stop
         offset="0.44"
         style="stop-color:#910F08"
         id="stop3479-9" /><stop
         offset="0.99"
         style="stop-color:#791C12"
         id="stop3481-7" /><stop
         offset="1"
         style="stop-color:#791C12"
         id="stop3483-5" /></linearGradient><inkscape:perspective
       sodipodi:type="inkscape:persp3d"
       inkscape:vp_x="0 : 526.18109 : 1"
       inkscape:vp_y="0 : 1000 : 0"
       inkscape:vp_z="744.09448 : 526.18109 : 1"
       inkscape:persp3d-origin="372.04724 : 350.78739 : 1"
       id="perspective14342" /><inkscape:perspective
       id="perspective14320"
       inkscape:persp3d-origin="0.5 : 0.33333333 : 1"
       inkscape:vp_z="1 : 0.5 : 1"
       inkscape:vp_y="0 : 1000 : 0"
       inkscape:vp_x="0 : 0.5 : 1"
       sodipodi:type="inkscape:persp3d" /><linearGradient
       id="linearGradient3943"><stop
         id="stop3945"
         style="stop-color:#ffffff"
         offset="0" /><stop
         id="stop5901"
         style="stop-color:#b82a9b"
         offset=".5" /><stop
         id="stop3947"
         style="stop-color:#2b0022"
         offset="1" /></linearGradient><filter
       style="color-interpolation-filters:sRGB;"
       inkscape:label="Invert"
       id="filter1592"
       x="-0.00095572395"
       y="-0.0067188575"
       width="1.0012541"
       height="1.0072147"><feColorMatrix
         type="hueRotate"
         values="180"
         result="color1"
         id="feColorMatrix1588" /><feColorMatrix
         values="1 0 0 0 0 0 0 1 0 0 0 1 0 0 0 -0.21 -0.72 -0.07 1.17834 0 "
         result="color2"
         id="feColorMatrix1590" /><feGaussianBlur
         stdDeviation="0.030832386"
         id="feGaussianBlur3415" /></filter><filter
       style="color-interpolation-filters:sRGB;"
       inkscape:label="Invert"
       id="filter3395"
       x="-0.0021177945"
       y="-0.0060069161"
       width="1.0021338"
       height="1.0120138"><feColorMatrix
         type="hueRotate"
         values="180"
         result="color1"
         id="feColorMatrix3391" /><feColorMatrix
         values="1 0 0 0 0 0 0 1 0 0 0 1 0 0 0 -0.21 -0.72 -0.07 1.17834 0 "
         result="color2"
         id="feColorMatrix3393" /><feGaussianBlur
         stdDeviation="0.0018480484"
         id="feGaussianBlur3397" /></filter><filter
       style="color-interpolation-filters:sRGB;"
       inkscape:label="Invert"
       id="filter3403"
       x="-1.7236995e-05"
       y="-0.0059958143"
       width="1.0000345"
       height="1.0120025"><feColorMatrix
         type="hueRotate"
         values="180"
         result="color1"
         id="feColorMatrix3399" /><feColorMatrix
         values="1 0 0 0 0 0 0 1 0 0 0 1 0 0 0 -0.21 -0.72 -0.07 1.17834 0 "
         result="color2"
         id="feColorMatrix3401" /><feGaussianBlur
         stdDeviation="0.0018480484"
         id="feGaussianBlur3405" /></filter><filter
       style="color-interpolation-filters:sRGB;"
       inkscape:label="Invert"
       id="filter3411"
       x="-0.0010937144"
       y="-0.0064515241"
       width="1.0014005"
       height="1.0129055"><feColorMatrix
         type="hueRotate"
         values="180"
         result="color1"
         id="feColorMatrix3407" /><feColorMatrix
         values="1 0 0 0 0 0 0 1 0 0 0 1 0 0 0 -0.21 -0.72 -0.07 1.17834 0 "
         result="color2"
         id="feColorMatrix3409" /><feGaussianBlur
         stdDeviation="0.030832386"
         id="feGaussianBlur3413" /></filter></defs><g
     inkscape:label="Camada 1"
     inkscape:groupmode="layer"
     id="layer1"><g
       id="g3571"
       transform="translate(-105.36805,-79.277178)"><path
         d="m 276.67026,232.27807 c -13.21056,-3.33221 -24.96621,-15.60505 -36.43088,-37.95666 -16.35316,-31.9141 -18.44823,-61.01225 -5.04562,-69.81209 4.59169,-2.86288 11.29008,-2.75728 17.22611,0.25989 3.29391,1.67784 4.23087,2.73382 6.11061,6.86388 2.31039,5.08631 3.21243,10.9118 3.60235,23.23158 l 0.35965,11.32247 1.85064,-4.27673 c 1.01844,-2.35249 3.07277,-6.39455 4.56841,-9.0345 1.49565,-2.61062 2.72359,-5.46177 2.72359,-6.33589 0,-0.86825 -0.6518,-3.13861 -1.45491,-5.05698 -1.48982,-3.56687 -1.72843,-5.50283 -1.09409,-8.74117 0.36315,-1.83037 0.36722,-1.83624 4.21923,-1.83624 l 3.8526,-0.002 2.4035,-3.13274 c 2.71195,-3.54341 7.9729,-7.8612 12.51221,-10.20782 2.63047,-1.37278 3.75366,-1.59571 8.03109,-1.59571 4.41128,0 5.28422,0.18715 7.7983,1.66611 1.54802,0.91518 2.68867,1.7893 2.53736,1.94183 -0.15131,0.15253 -1.78663,-0.16778 -3.64309,-0.70985 -4.62078,-1.35518 -9.25321,-0.86826 -13.96711,1.46664 -11.17369,5.53803 -22.52197,26.39953 -18.09905,33.20474 0.59942,0.92692 2.06015,1.7541 4.16686,2.37009 3.42194,1.00318 5.07471,0.73919 2.21728,-0.35669 -5.99422,-2.29382 -4.75464,-7.74386 4.01554,-17.65835 l 4.99906,-5.6495 -0.33113,-3.23247 c -0.29972,-2.92742 -0.20777,-3.30288 0.97769,-3.94233 1.6295,-0.87999 4.28907,-0.38309 6.22701,1.16744 1.839,1.46078 7.56552,1.59571 12.39581,0.29861 1.75753,-0.47637 4.83029,-0.86825 6.80897,-0.87412 3.38702,-0.007 3.6489,0.0909 3.99226,1.46078 0.20078,0.80372 0.21707,1.85383 0.0361,2.32902 -0.18099,0.47519 0.21999,2.11196 0.89041,3.64314 1.50728,3.4378 2.07178,11.55712 1.11155,16.01571 -0.3713,1.74824 -1.71098,5.32684 -2.97965,7.97853 -3.1717,6.57055 -3.29391,7.56786 -1.47237,11.90912 3.12514,7.45053 5.40644,21.70628 4.81865,29.97813 -0.174,2.43463 -1.01261,7.8612 -1.8681,12.02646 -1.62949,8.03719 -1.50146,10.85314 0.58196,12.61311 0.47838,0.40068 0.87295,1.57224 0.87295,2.60475 0,2.18236 -1.6295,3.93646 -4.59751,4.93378 -2.78178,0.93865 -8.78764,0.83305 -11.69745,-0.21178 -3.47432,-1.23785 -6.3434,-1.09705 -8.72945,0.42415 -1.79245,1.14398 -2.93891,1.31411 -9.60239,1.44317 -5.13873,0.0974 -8.67125,-0.13141 -10.9991,-0.71572 z m -8.84583,-20.6503 c -5.17366,-15.31173 -3.56744,-32.50075 4.70808,-50.39377 l 2.4908,-5.37377 -2.66539,-2.33489 -2.33367,5.08044 c -9.486,20.6503 -10.94091,38.83664 -4.14358,52.3884 1.79826,3.59034 3.42776,6.39456 3.73038,6.39456 0.0803,0 -0.72163,-2.57542 -1.78081,-5.7199 z m 44.52016,-51.33242 1.22213,-3.07995 -0.26538,2.56369 c -0.15073,1.46078 -0.0464,2.34663 0.2421,2.0533 0.47604,-0.47989 3.47432,-8.03719 3.47432,-8.79984 0,-0.18245 -0.79147,0.34143 -1.76335,1.16158 -1.79827,1.5253 -5.02816,2.70448 -7.44913,2.71035 -1.22212,0.003 -1.3036,0.19301 -0.96606,2.20582 0.66344,3.97167 0.83803,4.25326 2.59556,4.25326 1.46655,0 1.81572,-0.369 2.89235,-3.07994 z"
         fill="#fcfbfb"
         inkscape:connector-curvature="0"
         id="path2862"
         style="stroke-width:0.584305" /><path
         d="m 276.67026,232.27807 c -13.21056,-3.33221 -24.96621,-15.60505 -36.43088,-37.95666 -12.5122,-24.46356 -16.81873,-47.10849 -11.63926,-61.01225 3.72456,-10.03182 13.67613,-13.49309 23.86048,-8.33052 3.29391,1.67784 4.23087,2.73382 6.11061,6.86388 2.3104,5.08631 3.21244,10.91181 3.60235,23.23159 l 0.35966,11.32246 1.85064,-4.27672 c 1.01844,-2.35249 3.07276,-6.39455 4.56841,-9.03451 1.49564,-2.61062 2.72359,-5.46176 2.72359,-6.33588 0,-0.86825 -0.6518,-3.13861 -1.45491,-5.05698 -1.48983,-3.56687 -1.72843,-5.50283 -1.09409,-8.74118 0.36314,-1.83036 0.36722,-1.83623 4.21923,-1.83623 l 3.8526,-0.002 2.4035,-3.13275 c 2.71195,-3.5434 7.97289,-7.86119 12.51221,-10.20781 2.63047,-1.37278 3.75366,-1.59571 8.03109,-1.59571 4.41127,0 5.28422,0.18714 7.7983,1.6661 1.54802,0.91519 2.68867,1.78931 2.53736,1.94184 -0.15131,0.15253 -1.78663,-0.16779 -3.64309,-0.70986 -4.62079,-1.35517 -9.25321,-0.86825 -13.96711,1.46664 -11.17369,5.53804 -22.52197,26.39953 -18.09905,33.20475 0.59942,0.92691 2.06015,1.7541 4.16685,2.37009 3.42195,1.00318 5.07472,0.73918 2.21728,-0.35669 -5.99422,-2.29383 -4.75463,-7.74386 4.01555,-17.65835 l 4.99906,-5.6495 -0.33114,-3.23248 c -0.29971,-2.92741 -0.20776,-3.30287 0.9777,-3.94233 1.6295,-0.87998 4.28907,-0.38308 6.227,1.16745 1.83901,1.46077 7.56552,1.5957 12.39582,0.29861 1.75752,-0.47637 4.83029,-0.86826 6.80896,-0.87412 3.38703,-0.007 3.64891,0.0909 3.99227,1.46077 0.20078,0.80372 0.21707,1.85384 0.0361,2.32903 -0.18099,0.47519 0.21998,2.11196 0.8904,3.64313 1.50729,3.43781 2.07179,11.55713 1.11155,16.01572 -0.37129,1.74823 -1.71097,5.32684 -2.97965,7.97852 -3.1717,6.57055 -3.29391,7.56787 -1.47236,11.90912 3.12514,7.45054 5.40643,21.70629 4.81865,29.97814 -0.17401,2.43462 -1.01262,7.86119 -1.8681,12.02645 -1.6295,8.03719 -1.50147,10.85314 0.58196,12.61311 0.47838,0.40069 0.87295,1.57224 0.87295,2.60476 0,2.18236 -1.6295,3.93646 -4.59751,4.93378 -2.78178,0.93865 -8.78764,0.83305 -11.69746,-0.21179 -3.47432,-1.23784 -6.34339,-1.09704 -8.72944,0.42416 -1.79245,1.14398 -2.93891,1.31411 -9.60239,1.44317 -5.13873,0.0974 -8.67125,-0.13141 -10.9991,-0.71572 z m -8.84583,-20.6503 c -5.17366,-15.31173 -3.56744,-32.50075 4.70808,-50.39377 l 2.4908,-5.37377 -2.66539,-2.33489 -2.33367,5.08044 c -9.486,20.6503 -10.94091,38.83664 -4.14358,52.3884 1.79826,3.59034 3.42776,6.39456 3.73038,6.39456 0.0803,0 -0.72163,-2.57542 -1.78081,-5.7199 z m 44.52016,-51.33242 1.22213,-3.07995 -0.26538,2.56369 c -0.15073,1.46078 -0.0464,2.34663 0.2421,2.0533 0.47604,-0.47989 3.47432,-8.03719 3.47432,-8.79984 0,-0.18245 -0.79147,0.34143 -1.76335,1.16158 -1.79827,1.5253 -5.02816,2.70448 -7.44913,2.71035 -1.22212,0.003 -1.3036,0.19301 -0.96606,2.20582 0.66344,3.97167 0.83803,4.25326 2.59556,4.25326 1.46655,0 1.81572,-0.369 2.89235,-3.07994 z"
         fill="#fbfbfb"
         inkscape:connector-curvature="0"
         id="path2864"
         style="stroke-width:0.584305" /><path
         d="m 276.67026,232.27807 c -7.21634,-1.8245 -15.77119,-7.68519 -21.88181,-15.0184 -10.24254,-12.26111 -21.18345,-34.14339 -25.72276,-51.27375 -1.6295,-6.21856 -1.88556,-8.21319 -2.12998,-16.83704 -0.24501,-8.74118 -0.14375,-10.20782 0.93696,-13.84509 1.46654,-4.87511 3.09022,-7.39186 6.34339,-9.91449 4.70808,-3.61967 11.69746,-3.81326 18.21544,-0.50393 3.29391,1.67783 4.23088,2.73381 6.11062,6.86387 2.31039,5.08631 3.21243,10.91181 3.60235,23.23159 l 0.35965,11.32247 1.85064,-4.27673 c 1.01844,-2.35249 3.07277,-6.39455 4.56841,-9.0345 1.49565,-2.61062 2.72359,-5.46177 2.72359,-6.33589 0,-0.86825 -0.6518,-3.13861 -1.45491,-5.05698 -1.48982,-3.56687 -1.72843,-5.50283 -1.09409,-8.74118 0.36315,-1.83036 0.36722,-1.83623 4.21923,-1.83623 l 3.8526,-0.002 2.4035,-3.13274 c 2.71195,-3.54341 7.9729,-7.8612 12.51221,-10.20782 2.63047,-1.37278 3.75366,-1.59571 8.03109,-1.59571 4.41128,0 5.28422,0.18715 7.7983,1.66611 1.54802,0.91518 2.68867,1.7893 2.53736,1.94183 -0.15131,0.15253 -1.78663,-0.16779 -3.64309,-0.70986 -4.62078,-1.35517 -9.25321,-0.86825 -13.96711,1.46664 -11.17369,5.53804 -22.52197,26.39954 -18.09905,33.20475 0.59942,0.92691 2.06015,1.7541 4.16686,2.37009 3.42194,1.00318 5.07471,0.73919 2.21728,-0.35669 -5.99422,-2.29382 -4.75464,-7.74386 4.01554,-17.65835 l 4.99906,-5.6495 -0.33114,-3.23248 c -0.29971,-2.92741 -0.20776,-3.30287 0.9777,-3.94233 1.6295,-0.87998 4.28907,-0.38308 6.22701,1.16745 1.839,1.46077 7.56552,1.5957 12.39581,0.29861 1.75753,-0.47637 4.83029,-0.86825 6.80896,-0.87412 3.38703,-0.007 3.64891,0.0909 3.99227,1.46077 0.20078,0.80372 0.21707,1.85384 0.0361,2.32903 -0.18099,0.47519 0.21998,2.11196 0.89041,3.64313 1.50728,3.43781 2.07178,11.55713 1.11155,16.01572 -0.3713,1.74824 -1.71098,5.32684 -2.97966,7.97852 -3.17169,6.57055 -3.29391,7.56787 -1.47236,11.90913 3.12514,7.45053 5.40643,21.70628 4.81865,29.97813 -0.17401,2.43463 -1.01261,7.8612 -1.8681,12.02646 -1.6295,8.03719 -1.50146,10.85314 0.58196,12.6131 0.47838,0.40069 0.87295,1.57224 0.87295,2.60476 0,2.18236 -1.6295,3.93646 -4.59751,4.93378 -2.78178,0.93865 -8.78764,0.83305 -11.69746,-0.21179 -3.47431,-1.23784 -6.34339,-1.09704 -8.72944,0.42416 -1.79245,1.14398 -2.93891,1.31411 -9.60239,1.44317 -5.13873,0.0974 -8.67125,-0.13141 -10.9991,-0.71572 z m -8.84583,-20.6503 c -5.17366,-15.31173 -3.56744,-32.50075 4.70808,-50.39377 l 2.4908,-5.37377 -2.66539,-2.33489 -2.33367,5.08044 c -9.486,20.6503 -10.94091,38.83664 -4.14358,52.3884 1.79826,3.59034 3.42776,6.39456 3.73038,6.39456 0.0803,0 -0.72163,-2.57542 -1.78081,-5.7199 z m 44.52016,-51.33242 1.22213,-3.07995 -0.26538,2.56369 c -0.15073,1.46078 -0.0464,2.34663 0.2421,2.0533 0.47604,-0.47989 3.47432,-8.03719 3.47432,-8.79984 0,-0.18245 -0.79147,0.34143 -1.76335,1.16158 -1.79827,1.5253 -5.02816,2.70448 -7.44913,2.71035 -1.22212,0.003 -1.3036,0.19301 -0.96606,2.20582 0.66344,3.97167 0.83803,4.25326 2.59556,4.25326 1.46655,0 1.81572,-0.369 2.89235,-3.07994 z"
         fill="#a08470"
         inkscape:connector-curvature="0"
         id="path2866"
         style="stroke-width:0.584305" /><path
         d="m 276.67026,232.27807 c -13.03597,-3.60207 -24.96621,-16.48504 -36.19809,-39.01264 -9.486,-19.00766 -13.50155,-34.14339 -12.86139,-48.04715 0.52726,-11.38113 3.71293,-17.65835 10.41714,-20.59163 3.75948,-1.6309 9.13682,-1.41384 13.55974,0.54676 5.13873,2.2645 6.98355,4.88098 9.13682,12.84778 1.00097,3.737 1.25122,6.86387 1.49564,18.30367 l 0.29506,13.78642 1.00097,-2.93328 c 1.09991,-3.21488 5.17947,-11.61579 7.27454,-14.90107 1.96122,-3.13274 2.12417,-6.21855 0.5098,-9.73849 -0.8613,-1.86557 -1.35597,-4.0362 -1.35597,-5.98389 -0.009,-4.71672 0.14432,-4.88098 4.56841,-4.92205 l 3.86423,-0.0334 2.18818,-2.89808 c 2.68867,-3.55514 7.74011,-7.62653 12.33762,-9.97316 2.93891,-1.49011 4.08538,-1.74237 7.8565,-1.7189 3.60235,0.0216 4.90012,0.29802 7.04175,1.50184 1.44327,0.80958 2.09507,1.30824 1.45491,1.10291 -8.26388,-2.62822 -15.53842,-0.67465 -22.58017,6.10123 -8.72944,8.33052 -14.66546,22.5276 -11.75565,28.10083 1.11155,2.17063 0.86131,2.38183 -0.75073,0.63359 l -1.14065,-1.23785 -1.13483,2.2645 c -2.53736,5.05697 -6.57618,16.13304 -8.08928,22.23427 -1.38507,5.58497 -1.6004,7.62653 -1.59458,14.95974 0.0107,7.62653 0.17168,8.97584 1.56548,13.19976 1.8681,5.65537 6.57618,13.66909 8.90403,15.07707 0.3323,0.20357 -0.0342,-2.0533 -0.81475,-5.01591 -1.68769,-6.39456 -2.07178,-17.36503 -0.73909,-21.17829 l 0.79729,-2.27623 1.79245,3.15621 c 3.06694,5.40897 11.93024,13.37576 16.00398,14.43174 3.03785,0.76852 2.96801,-3.23247 -0.21475,-11.85045 -2.74686,-7.45054 -3.29391,-10.26649 -3.31718,-17.30636 -0.0212,-6.98121 0.84384,-10.14916 4.79537,-17.36503 2.70031,-4.95724 2.89236,-7.09854 1.16975,-12.61311 -0.63434,-2.04743 -1.15811,-4.05966 -1.16393,-4.47032 -0.004,-0.41359 1.36761,0.28336 3.04949,1.54877 4.29488,3.23835 9.95156,5.9839 13.15236,6.33589 2.37441,0.28336 2.97965,0.12027 4.57423,-1.23198 1.98449,-1.6837 4.23087,-6.86387 4.23087,-9.73849 0,-0.95625 0.25024,-1.7365 0.55577,-1.7365 0.75656,0 1.3618,3.56687 1.09409,6.39455 l -0.22172,2.34076 1.61203,-1.56051 c 0.89041,-0.85651 2.14163,-2.89808 2.79343,-4.52898 l 1.17556,-2.96848 -0.19263,5.00417 c -0.17401,4.52899 -0.45218,5.56151 -2.92145,10.91181 -1.67024,3.60207 -2.72941,6.68788 -2.72941,7.97853 0,1.16744 0.78565,4.10072 1.74589,6.51188 4.0912,10.32515 5.17947,26.22354 2.61883,38.19132 -1.93793,9.03451 -1.91465,12.02646 0.0943,14.43175 1.26868,1.51944 1.45491,2.12956 1.01844,3.35567 -0.80893,2.29383 -3.12514,3.67833 -7.39093,4.41166 -3.4976,0.60425 -4.27161,0.54324 -7.8565,-0.62186 -5.05726,-1.64264 -6.22701,-1.61917 -9.5442,0.17541 -2.53736,1.36104 -3.28227,1.46077 -10.47533,1.41384 -4.53931,-0.0307 -8.90403,-0.38074 -10.59173,-0.84478 z m 34.685,-68.63878 c 0.50165,-0.40362 1.2163,-1.26131 1.59457,-1.90663 0.64598,-1.11465 0.66344,-1.10878 0.32416,0.14666 -0.53541,1.97117 0.70999,1.60744 1.80408,-0.53562 1.34434,-2.62235 3.21244,-8.27185 2.85744,-8.62384 -0.16411,-0.16544 -1.01843,0.38895 -1.89138,1.23198 -1.95539,1.8773 -4.20759,2.78075 -6.92536,2.78075 h -2.07179 l 0.2776,2.91568 c 0.40039,4.20046 1.92048,5.69056 4.05046,3.97753 z m -0.9777,-26.4582 c -5.87783,-2.78661 -7.27454,-6.68788 -3.2008,-8.68251 2.65957,-1.30824 9.77698,-2.52849 11.81385,-2.01223 1.39671,0.35375 1.58876,0.68052 1.58876,2.75729 0,4.03619 -3.60817,9.3865 -6.3434,9.32783 -0.51678,-0.003 -2.25219,-0.62772 -3.85259,-1.39038 z m -19.84494,-3.44367 c 0.68672,-1.06771 0.72745,-1.78343 0.19612,-3.76633 -1.2163,-4.54659 1.58294,-5.55564 7.33274,-2.63995 l 3.26481,1.66023 -3.07277,0.97385 c -1.68769,0.53679 -4.14357,1.90077 -5.45299,3.03302 -2.7585,2.38182 -3.45686,2.61062 -2.2522,0.73918 z"
         fill="#45352f"
         inkscape:connector-curvature="0"
         id="path2868"
         style="stroke-width:0.584305" /></g></g></svg>
